<svg width="48" height="48" viewBox="0 0 48 48" fill="none" xmlns="http://www.w3.org/2000/svg">
<path d="M24.0054 11.6908C17.1949 11.6908 11.7015 17.1842 11.7015 23.9946C11.7015 30.8051 17.1949 36.2985 24.0054 36.2985C30.8158 36.2985 36.3092 30.8051 36.3092 23.9946C36.3092 17.1842 30.8158 11.6908 24.0054 11.6908ZM24.0054 31.9938C19.6042 31.9938 16.0062 28.4065 16.0062 23.9946C16.0062 19.5828 19.5935 15.9955 24.0054 15.9955C28.4172 15.9955 32.0045 19.5828 32.0045 23.9946C32.0045 28.4065 28.4065 31.9938 24.0054 31.9938ZM39.6823 11.1875C39.6823 12.783 38.3973 14.0573 36.8125 14.0573C35.217 14.0573 33.9427 12.7723 33.9427 11.1875C33.9427 9.60268 35.2277 8.31768 36.8125 8.31768C38.3973 8.31768 39.6823 9.60268 39.6823 11.1875ZM47.8313 14.1002C47.6493 10.2559 46.7712 6.85064 43.9549 4.04506C41.1494 1.23949 37.7441 0.361405 33.8998 0.168656C29.9378 -0.0562186 18.0622 -0.0562186 14.1002 0.168656C10.2666 0.350697 6.86135 1.22878 4.04506 4.03436C1.22878 6.83993 0.361405 10.2452 0.168656 14.0895C-0.0562186 18.0515 -0.0562186 29.927 0.168656 33.8891C0.350697 37.7334 1.22878 41.1387 4.04506 43.9442C6.86135 46.7498 10.2559 47.6279 14.1002 47.8206C18.0622 48.0455 29.9378 48.0455 33.8998 47.8206C37.7441 47.6386 41.1494 46.7605 43.9549 43.9442C46.7605 41.1387 47.6386 37.7334 47.8313 33.8891C48.0562 29.927 48.0562 18.0622 47.8313 14.1002ZM42.7128 38.1403C41.8775 40.2392 40.2606 41.8561 38.151 42.7021C34.9921 43.9549 27.4963 43.6658 24.0054 43.6658C20.5144 43.6658 13.0079 43.9442 9.85968 42.7021C7.76085 41.8668 6.14389 40.2499 5.29794 38.1403C4.04506 34.9814 4.33419 27.4856 4.33419 23.9946C4.33419 20.5037 4.05577 12.9972 5.29794 9.84897C6.13318 7.75014 7.75014 6.13318 9.85968 5.28723C13.0186 4.03436 20.5144 4.32348 24.0054 4.32348C27.4963 4.32348 35.0028 4.04506 38.151 5.28723C40.2499 6.12248 41.8668 7.73943 42.7128 9.84897C43.9656 13.0079 43.6765 20.5037 43.6765 23.9946C43.6765 27.4856 43.9656 34.9921 42.7128 38.1403Z" fill="white"/>
</svg>
