<svg width="48" height="55" viewBox="0 0 48 55" fill="none" xmlns="http://www.w3.org/2000/svg">
<path d="M44.5714 3.42871H3.41786C1.53214 3.42871 0 4.98228 0 6.88943V47.968C0 49.8751 1.53214 51.4287 3.41786 51.4287H44.5714C46.4571 51.4287 48 49.8751 48 47.968V6.88943C48 4.98228 46.4571 3.42871 44.5714 3.42871ZM14.5071 44.5716H7.39286V21.6644H14.5179V44.5716H14.5071ZM10.95 18.5359C8.66786 18.5359 6.825 16.6823 6.825 14.4109C6.825 12.1394 8.66786 10.2859 10.95 10.2859C13.2214 10.2859 15.075 12.1394 15.075 14.4109C15.075 16.693 13.2321 18.5359 10.95 18.5359ZM41.175 44.5716H34.0607V33.4287C34.0607 30.7716 34.0071 27.3537 30.3643 27.3537C26.6571 27.3537 26.0893 30.2466 26.0893 33.2359V44.5716H18.975V21.6644H25.8V24.793H25.8964C26.85 22.993 29.175 21.0966 32.6357 21.0966C39.8357 21.0966 41.175 25.843 41.175 32.0144V44.5716Z" fill="white"/>
</svg>
