<svg width="48" height="48" viewBox="0 0 48 48" fill="none" xmlns="http://www.w3.org/2000/svg">
<path d="M43.0659 14.2235C43.0964 14.6499 43.0964 15.0763 43.0964 15.5027C43.0964 28.5077 33.198 43.4925 15.1066 43.4925C9.53297 43.4925 4.35534 41.8783 0 39.0763C0.791906 39.1677 1.55325 39.1981 2.37563 39.1981C6.97453 39.1981 11.2081 37.6449 14.5888 34.9951C10.2639 34.9037 6.63956 32.0712 5.39081 28.1727C6 28.2641 6.60909 28.325 7.24875 28.325C8.13197 28.325 9.01528 28.2031 9.83756 27.99C5.32997 27.0762 1.94916 23.1169 1.94916 18.3352V18.2134C3.25875 18.9444 4.78172 19.4012 6.39581 19.4621C3.74606 17.6955 2.01009 14.6803 2.01009 11.2692C2.01009 9.44178 2.49731 7.76666 3.35016 6.30472C8.19281 12.2743 15.472 16.1727 23.6344 16.5991C23.4821 15.8682 23.3907 15.1068 23.3907 14.3454C23.3907 8.924 27.7765 4.50781 33.2283 4.50781C36.0608 4.50781 38.6191 5.69563 40.4161 7.61441C42.6394 7.18803 44.7713 6.36566 46.6598 5.23878C45.9287 7.52309 44.3754 9.44187 42.3349 10.6601C44.3146 10.447 46.2334 9.89862 47.9998 9.13728C46.6599 11.0864 44.9847 12.8224 43.0659 14.2235Z" fill="white"/>
</svg>
