<svg width="523" height="268" viewBox="0 0 523 268" fill="none" xmlns="http://www.w3.org/2000/svg">
<g clip-path="url(#clip0_262_1499)">
<path d="M499.786 148.079L498.147 161.109L494.081 193.472H412.396C413.034 186.218 413.906 175.778 414.838 164.507C414.93 163.381 415.026 162.249 415.118 161.109C417.454 132.777 420.01 100.717 420.01 100.717L430.749 102.715L451.584 106.584L460.075 108.16L482.81 112.389C494.145 114.492 501.943 130.885 499.786 148.079Z" fill="#F2F2F2"/>
<path d="M437.998 48.2891L448.044 65.8456L428.737 79.5113L420.501 57.9309L437.998 48.2891Z" fill="#FFB6B6"/>
<path d="M425.21 64.8982C438.954 64.8982 450.095 53.7705 450.095 40.0438C450.095 26.3171 438.954 15.1895 425.21 15.1895C411.467 15.1895 400.325 26.3171 400.325 40.0438C400.325 53.7705 411.467 64.8982 425.21 64.8982Z" fill="#FFB6B6"/>
<path d="M423.423 45.6003C421.447 42.5968 422.223 41.0258 420.569 39.922C420.569 39.922 419.903 39.4778 415.139 39.2246C414.072 31.557 412.741 30.6271 412.741 30.6271C411.206 29.5554 408.928 29.9036 407.512 30.5591C404.515 31.9453 404.862 34.9398 402.845 35.5128C400.058 36.3044 394.987 31.8419 394.487 26.7333C394.079 22.5661 396.768 18.5188 397.834 18.7329C398.891 18.9452 401.422 15.718 402.788 15.7678C403.722 15.8018 407.535 14.1464 408.561 14.2758C409.681 14.4172 413.375 16.3424 413.529 15.9025C414.598 12.846 414.284 11.998 415.191 11.1236C416.8 9.57417 419.43 10.6531 423.558 11.2324C432.05 12.4242 433.532 9.62766 437.884 11.5232C440.082 12.4807 441.921 15.0631 445.511 20.1887C450.53 27.3568 453.04 30.9409 453.056 35.1212C453.073 39.3843 451.006 39.1137 450.098 45.425C449.087 52.4504 451.234 55.6629 448.889 57.9453C447.075 59.7093 443.39 60.1281 441.454 58.5799C438.139 55.9292 442.477 49.5332 438.809 44.8603C436.557 41.9918 432.028 40.7155 429.954 42.1334C427.608 43.7366 428.9 48.4424 427.251 48.8886C425.838 49.2708 423.768 46.1238 423.423 45.6003Z" fill="#2F2E41"/>
<path d="M481.392 143.49C480.698 155.344 477.941 159.086 476.975 173.085C476.764 176.158 476.638 179.726 476.638 183.98C476.638 185.065 476.644 186.113 476.644 187.138C476.644 189.319 476.602 191.38 476.348 193.471C476.155 195.141 475.823 196.822 475.274 198.594H421.678C421.672 198.582 421.672 198.57 421.665 198.557C421.352 197.196 421.153 195.894 421.002 194.647C420.953 194.249 420.911 193.857 420.875 193.471C420.827 193.019 420.784 192.574 420.742 192.134C420.579 190.38 420.417 188.723 420.03 187.138C419.512 184.95 418.57 182.889 416.639 180.901C415.849 180.087 415.059 179.455 414.286 178.9C414.135 178.798 413.991 178.695 413.84 178.593C411.704 177.128 409.683 176.074 407.933 173.085C407.903 173.043 407.879 172.994 407.854 172.952C407.553 172.428 406.768 171.054 406.201 169.222C405.604 167.318 405.242 164.925 405.893 162.479C407.444 156.682 413.188 156.103 417.882 150.246C418.389 149.613 418.89 148.914 419.367 148.137C421.49 144.689 422.063 141.653 422.739 138.043C422.848 137.458 422.944 136.88 423.023 136.319C423.083 135.897 423.138 135.482 423.18 135.072C423.554 131.631 423.373 128.666 422.933 126.014C421.497 117.331 417.261 111.955 420.253 104.163C421.195 101.717 422.528 99.8789 423.874 98.3062C426.721 94.9736 429.648 92.8102 429.141 88.5078C428.628 84.1688 425.334 83.5721 424.966 79.7816C424.779 77.8655 425.406 75.8466 426.583 73.864V73.8581C430.348 67.4762 439.748 61.6007 445.721 61.7875C446.825 61.8178 447.803 62.0647 448.617 62.5408C451.568 64.2763 450.337 68.0668 454.857 73.382C458.217 77.329 462.018 78.908 463.46 79.6551C469.174 82.6323 473.82 91.4123 476.975 102.639C476.999 102.723 477.024 102.808 477.048 102.898C478.997 109.931 480.373 117.915 481.054 126.014C481.344 129.443 481.513 132.89 481.549 136.301C481.579 139.025 481.519 141.387 481.392 143.49Z" fill="#54B9EF"/>
<path d="M441.256 184.1L440.164 187.138L439.476 189.042L437.883 193.471L436.037 198.593H424.169L426.16 193.471L427.083 191.085L428.616 187.138L431.186 180.509L441.256 184.1Z" fill="#FFB6B6"/>
<path d="M477.162 101.602C477.132 101.994 477.09 102.428 477.047 102.898C476.577 107.683 475.467 116.246 473.844 126.014C472.987 131.166 471.985 136.656 470.857 142.11C468.432 153.879 465.415 165.468 462.006 173.084C461.397 174.459 460.769 175.7 460.129 176.797C459.641 177.634 459.128 178.46 458.591 179.273C456.853 181.943 454.904 184.474 452.883 186.836C452.805 186.939 452.714 187.035 452.624 187.138C452.298 187.523 451.96 187.903 451.622 188.283C449.969 190.145 448.279 191.88 446.644 193.471C444.653 195.412 442.734 197.129 441.015 198.593H421.743L421.665 198.557L418.89 197.328C418.89 197.328 419.68 196.4 421.001 194.646C421.273 194.29 421.562 193.899 421.876 193.471C422.262 192.947 422.679 192.368 423.125 191.741C424.054 190.428 425.11 188.885 426.244 187.138C428.441 183.757 430.945 179.599 433.473 174.784C433.763 174.223 434.058 173.657 434.354 173.084C434.36 173.066 434.372 173.048 434.378 173.03C434.879 172.054 435.374 171.048 435.868 170.023C440.062 161.309 441.262 154.078 441.606 151.734C442.089 148.42 442.758 143.785 442.577 138.687C442.457 135.325 441.968 131.769 440.804 128.238V128.232C440.562 127.491 440.291 126.749 439.983 126.014C439.434 124.694 438.782 123.393 438.01 122.109C434.601 116.457 431.832 116.222 429.629 110.063C428.978 108.237 427.499 104.115 427.952 99.7641V99.7582C428.007 99.2218 428.097 98.6795 428.218 98.1369V98.131C428.248 97.9804 428.29 97.8238 428.332 97.6732C428.676 96.3414 429.243 95.0214 430.106 93.7679C431.789 91.3336 434.088 89.8871 436.146 89.0255L436.152 89.0194C438.529 88.0313 440.581 87.8203 440.979 87.7841C449.794 87.0008 456.63 94.4008 460.365 98.4444C461.807 100.005 463.128 101.313 464.335 102.379C473.729 110.756 476.306 105.404 476.975 102.639C477.078 102.211 477.132 101.843 477.162 101.602Z" fill="#54B9EF"/>
<path d="M477.192 101.289C477.192 101.319 477.186 101.421 477.162 101.59C477.174 101.5 477.18 101.409 477.186 101.325C477.186 101.307 477.186 101.295 477.192 101.289Z" fill="#54B9EF"/>
<path d="M429.274 228.447H105.842C102.837 228.447 100.388 230.888 100.388 233.889C100.388 236.896 102.837 239.336 105.842 239.336H429.274C432.278 239.336 434.723 236.896 434.723 233.889C434.723 230.888 432.278 228.447 429.274 228.447Z" fill="#B0B0B0"/>
<path d="M357.498 256.578H177.611C174.607 256.578 172.163 259.019 172.163 262.02C172.163 265.021 174.607 267.467 177.611 267.467H357.498C360.502 267.467 362.952 265.021 362.952 262.02C362.952 259.019 360.502 256.578 357.498 256.578Z" fill="#B0B0B0"/>
<path d="M141.832 49.4448L162.216 40.877L170.959 58.778L149.538 67.5102L141.832 49.4448Z" fill="#FFB6B6"/>
<path opacity="0.1" d="M141.832 49.4448L162.216 40.877L170.959 58.778L149.538 67.5102L141.832 49.4448Z" fill="black"/>
<path d="M144.73 42.6234L164.839 65.7637C164.839 65.7637 150.85 109.861 136.861 113.791C122.872 117.72 97.0805 136.931 97.0805 136.931L64.7314 115.974L80.4688 92.8335C80.4688 92.8335 118.501 40.877 128.555 40.877C138.61 40.877 144.73 42.6234 144.73 42.6234Z" fill="#54B9EF"/>
<path d="M117.561 193.472H70.7513L67.7917 189.52L55.7089 173.388L52.9287 169.677C52.9287 169.677 42.4371 150.466 44.6228 133.001C46.8086 115.537 69.5403 111.607 69.5403 111.607H70.4759L98.3048 136.031L96.6436 158.761L105.457 173.388L117.561 193.472Z" fill="#2F2E41"/>
<path d="M80.3372 193.472H67.791V174.916L80.3372 193.472Z" fill="#2F2E41"/>
<path d="M350.942 165.302L349.382 173.388L345.508 193.472H267.7C268.308 188.97 269.138 182.491 270.026 175.497C270.113 174.798 270.205 174.095 270.292 173.388C272.518 155.806 274.952 135.909 274.952 135.909L285.182 137.149L305.028 139.551L313.116 140.529L334.772 143.153C345.57 144.458 352.997 154.631 350.942 165.302Z" fill="#F2F2F2"/>
<path d="M461.056 193.472H418.854C419.496 192.716 419.859 192.28 419.859 192.28L432.51 190.193L458.577 185.896C458.577 185.896 459.766 188.966 461.056 193.472Z" fill="#2F2E41"/>
<path d="M282.044 58.1777L300.397 84.1011L268.384 85.056L264.947 60.6941L282.044 58.1777Z" fill="#A0616A"/>
<path opacity="0.1" d="M282.044 58.1777L300.397 84.1011L268.384 85.056L264.947 60.6941L282.044 58.1777Z" fill="black"/>
<path d="M191.535 111.889C189.18 105.104 183.766 100.817 179.443 102.315C175.12 103.813 173.525 110.526 175.882 117.313C176.786 120.037 178.33 122.505 180.385 124.511L190.727 153.133L204.072 148L192.46 120.328C192.831 117.482 192.514 114.588 191.535 111.889Z" fill="#A0616A"/>
<path d="M315.767 98.6789L315.742 125.098L313.281 134.856L308.219 154.927L304.534 173.387L301.788 187.14L300.809 192.052C300.07 192.546 299.336 193.017 298.601 193.471H234.66C231.027 191.293 228.994 189.599 228.994 189.599C228.994 189.599 230 188.655 231.149 187.14C233.09 184.582 235.438 180.39 234 176.387C233.698 175.548 233.619 174.527 233.711 173.387C234.297 165.869 242.192 153.155 242.192 153.155L240.557 134.284L239.84 126.015L244.895 85.6939L261.371 76.1278L264.215 75.8529L292.293 74.3379L303.899 75.0059L304.428 75.15L315.767 98.6789Z" fill="#CCCCCC"/>
<path d="M317.015 193.471H303.026L302.41 187.14L302.396 187.014L306.357 186.743L316.661 186.04L316.84 189.83L316.98 192.738L317.015 193.471Z" fill="#FFB6B6"/>
<path d="M320.458 105.067L326.334 139.502L321.539 173.388L320.791 178.662L319.471 187.975L319.065 190.839L319.078 191.149L319.178 193.472H302.567L301.955 187.141L301.902 186.573L300.652 173.606L300.63 173.388L297.977 145.89L303.179 126.015L303.563 124.553V124.548L305.827 90.519L304.074 75.0543L304.056 74.9102C304.091 74.932 304.122 74.9539 304.157 74.9757C304.249 75.0324 304.34 75.0892 304.428 75.1503C314.64 81.6209 320.725 92.9728 320.458 105.067Z" fill="#CCCCCC"/>
<path d="M250.846 92.2924L244.458 85.6934C244.458 85.6934 230.783 91.8506 230.102 95.2666C229.42 98.6826 205.275 148.855 205.275 148.855L194.771 120.834L181.098 129.952C181.098 129.952 192.069 173.456 202.33 175.498C212.59 177.54 246.98 124.007 246.98 124.007L250.846 92.2924Z" fill="#CCCCCC"/>
<path d="M510.227 173.085H12.7672C5.72605 173.085 0 178.81 0 185.842C0 192.875 5.72604 198.594 12.7672 198.594H510.227C517.268 198.594 523 192.875 523 185.842C523 178.81 517.268 173.085 510.227 173.085Z" fill="#CCCCCC"/>
<path d="M312.856 134.212L311.889 179.289C311.795 183.652 308.227 187.141 303.857 187.141H220.833C216.566 187.141 213.044 183.81 212.811 179.555L210.343 134.478C210.092 129.881 213.756 126.016 218.365 126.016H304.824C309.328 126.016 312.953 129.714 312.856 134.212Z" fill="#3F3D56"/>
<path d="M178.828 60.325C189.798 60.325 198.691 51.4426 198.691 40.4857C198.691 29.5288 189.798 20.6465 178.828 20.6465C167.857 20.6465 158.964 29.5288 158.964 40.4857C158.964 51.4426 167.857 60.325 178.828 60.325Z" fill="#FFB6B6"/>
<path d="M145.604 92.3972L147.79 115.974L162.653 175.79L149.813 180.285L128.118 115.101L125.122 88.9043L145.604 92.3972Z" fill="#FFB6B6"/>
<path d="M139.692 134.212L138.725 179.289C138.631 183.652 135.063 187.141 130.693 187.141H47.6686C43.4019 187.141 39.8795 183.81 39.6466 179.555L37.1792 134.478C36.9276 129.881 40.5919 126.016 45.2013 126.016H131.66C136.164 126.016 139.789 129.714 139.692 134.212Z" fill="#3F3D56"/>
<path d="M165.019 187.446C173.683 187.446 180.707 184.343 180.707 180.516C180.707 176.689 173.683 173.586 165.019 173.586C156.356 173.586 149.332 176.689 149.332 180.516C149.332 184.343 156.356 187.446 165.019 187.446Z" fill="#FFB6B6"/>
<path d="M114.785 96.0005L123.747 48.2983C123.747 48.2983 148.664 44.8054 149.539 53.101C150.413 61.3966 148.914 101.938 148.914 101.938L114.785 96.0005Z" fill="#54B9EF"/>
<path d="M170.809 43.6055C170.809 43.6055 183.097 39.2254 188.28 36.8688C193.463 34.5121 203.761 50.9497 203.99 42.2685C204.219 33.5872 200.661 29.9467 200.661 29.9467C200.661 29.9467 199.772 10.9552 180.615 13.3295C180.615 13.3295 184.829 3.82788 170.997 2.35862C157.165 0.889361 135.646 34.2497 137.574 39.2352C139.501 44.2207 141.811 48.3425 136.343 53.6731C130.876 59.0037 120.638 89.0884 128.427 97.184C136.217 105.28 136.728 108.793 131.391 113.829C126.054 118.865 113.438 129.817 127.079 131.718C140.719 133.619 125.831 132.199 136 123.265C146.169 114.332 161.007 114.696 155.467 100.363C149.926 86.0297 159.552 65.4901 158.348 62.3741C157.143 59.2582 161.046 39.4717 161.046 39.4717C161.046 39.4717 170.13 38.1388 170.809 43.6055Z" fill="#2F2E41"/>
<path d="M272.232 67.5601C284.174 67.5601 293.855 57.891 293.855 45.9636C293.855 34.0362 284.174 24.3672 272.232 24.3672C260.289 24.3672 250.608 34.0362 250.608 45.9636C250.608 57.891 260.289 67.5601 272.232 67.5601Z" fill="#A0616A"/>
<path d="M273.957 16.9287C273.331 17.2935 272.493 16.7416 272.292 16.0463C272.092 15.351 272.325 14.6128 272.557 13.9272L273.724 10.4759C274.551 8.02821 275.43 5.49496 277.222 3.63192C279.926 0.819962 284.225 0.104614 288.094 0.622859C293.064 1.28839 297.967 3.97585 300.277 8.41991C302.588 12.864 301.604 19.0651 297.429 21.8377C303.379 28.6493 305.453 36.2406 305.126 45.2744C304.798 54.3082 294.942 62.6222 288.514 68.9862C287.078 68.1171 285.773 64.0442 286.563 62.5646C287.352 61.085 286.221 59.3708 287.199 58.0079C288.176 56.645 288.994 58.8151 288.006 57.46C287.382 56.6049 289.816 54.6376 288.889 54.1258C284.405 51.6503 282.914 46.0682 280.098 41.7935C276.701 36.6374 270.887 33.1457 264.735 32.5664C261.345 32.2473 257.766 32.8253 254.988 34.7904C252.21 36.7556 250.411 40.2673 251.055 43.6059C249.387 41.914 248.557 39.4346 248.87 37.0806C249.183 34.7267 250.633 32.5499 252.686 31.352C251.438 27.2292 252.507 22.4869 255.404 19.2965C258.302 16.1062 270.054 16.6496 274.284 17.4892L273.957 16.9287Z" fill="#2F2E41"/>
<path d="M274.613 32.6914C280.215 33.2954 284.26 38.1421 287.676 42.618C289.645 45.1979 291.707 48.0468 291.657 51.2902C291.607 54.5692 289.412 57.3818 288.363 60.4893C286.648 65.5687 288.32 71.6121 292.401 75.0925C288.368 75.8569 284.008 72.8364 283.312 68.7956C282.501 64.0915 286.071 59.5514 285.649 54.7969C285.276 50.6082 281.971 47.3844 279.161 44.2525C276.352 41.1206 273.713 36.9646 275.005 32.9624L274.613 32.6914Z" fill="#2F2E41"/>
<path d="M358.365 175.815C352.816 178.967 349.947 184.382 351.956 187.909C353.965 191.435 360.091 191.738 365.642 188.584C367.876 187.354 369.783 185.608 371.204 183.492L394.546 169.839L387.898 159.035L365.592 173.641C363.044 173.779 360.566 174.524 358.365 175.815Z" fill="#FFB6B6"/>
<path d="M437.398 75.6979C436.7 75.4218 430.58 73.1068 424.992 76.1633C418.573 79.6743 417.582 87.6892 417.234 90.5003C416.431 96.9941 418.797 98.4496 419.297 105.024C420.231 117.323 422.696 103.292 418.76 108.906C417.398 110.849 403.485 140.964 395.812 146.863C380.888 158.335 371.412 166.414 371.412 166.414L382.231 178.152C382.231 178.152 399.326 173.602 414.436 163.803C429.935 153.752 437.685 148.726 443.68 138.894C444.197 138.047 456.551 117.094 449.916 93.9241C448.403 88.6392 445.63 78.956 437.398 75.6979Z" fill="#54B9EF"/>
<path d="M493.261 134.212L492.294 179.289C492.201 183.652 488.632 187.141 484.262 187.141H401.238C396.971 187.141 393.449 183.81 393.216 179.555L390.749 134.478C390.497 129.881 394.161 126.016 398.771 126.016H485.229C489.734 126.016 493.358 129.714 493.261 134.212Z" fill="#3F3D56"/>
</g>
<defs>
<clipPath id="clip0_262_1499">
<rect width="523" height="267" fill="white" transform="translate(0 0.466797)"/>
</clipPath>
</defs>
</svg>
