<svg width="184" height="172" viewBox="0 0 184 172" fill="none" xmlns="http://www.w3.org/2000/svg">
<g filter="url(#filter0_d_328_1377)">
<path d="M166.013 98.7047C166.039 93.6579 163.729 88.9479 159.91 85.8883C163.756 82.7979 166.11 78.0745 166.134 73.0313C166.153 68.6322 164.462 64.5051 161.367 61.4126C158.294 58.3402 154.204 56.6562 149.853 56.6786C140.857 56.719 133.505 64.1039 133.464 73.1393C133.46 73.9017 133.508 74.6552 133.608 75.403L49.7625 75.7949C49.8653 75.0614 49.9166 74.3189 49.9194 73.5712C49.9404 69.1731 48.2471 65.045 45.1526 61.9525C42.0818 58.8762 37.9895 57.196 33.6394 57.2166C24.6458 57.2579 17.2937 64.6431 17.2515 73.6803C17.2275 78.7285 19.5395 83.4345 23.3561 86.4947C19.5093 89.5872 17.1533 94.3125 17.1338 99.353C17.113 103.751 18.8055 107.876 21.8988 110.971C22.9194 111.991 24.0517 112.858 25.2666 113.559C27.7156 114.973 30.5083 115.721 33.4152 115.706C42.4086 115.664 49.7606 108.279 49.8041 99.24C49.8052 98.4864 49.7574 97.7379 49.6602 96.9993L133.502 96.6081C133.401 97.3347 133.349 98.0693 133.345 98.8107C133.324 103.209 135.017 107.337 138.113 110.431C141.187 113.501 145.272 115.185 149.625 115.165C158.618 115.124 165.97 107.739 166.013 98.7047ZM149.602 110.616C146.479 110.627 143.54 109.426 141.331 107.214C139.101 104.985 137.883 102.008 137.896 98.8371C137.903 97.5353 138.116 96.2599 138.525 95.049C138.76 94.3534 138.643 93.5858 138.215 92.9894C137.785 92.3921 137.095 92.04 136.357 92.0452L46.8063 92.4628C46.0762 92.4644 45.3948 92.8177 44.9689 93.4083C44.5442 94.0019 44.4272 94.7606 44.6567 95.4521C45.0557 96.6551 45.2559 97.9224 45.2509 99.2205C45.2199 105.771 39.9004 111.125 33.3923 111.157C30.2654 111.17 27.3264 109.956 25.1168 107.754C22.8887 105.526 21.6704 102.549 21.6859 99.3745C21.7046 94.762 24.4206 90.5114 28.6043 88.5474C29.4047 88.1705 29.914 87.364 29.911 86.4795C29.907 85.6641 29.4695 84.9189 28.7726 84.5165C28.7128 84.482 28.6502 84.4485 28.5871 84.4197C24.4536 82.5308 21.7842 78.306 21.8035 73.7017C21.8346 67.1518 27.154 61.7977 33.6622 61.7658C36.7922 61.7512 39.7315 62.9609 41.9348 65.1693C44.1628 67.3972 45.3822 70.3719 45.3664 73.5518C45.3646 74.8489 45.1508 76.1262 44.7333 77.3475C44.4972 78.045 44.6107 78.8136 45.0411 79.411C45.4683 80.0091 46.1632 80.3618 46.8994 80.3583L136.467 79.9398C137.197 79.938 137.88 79.5859 138.305 78.9922C138.729 78.4005 138.845 77.639 138.615 76.9472C138.212 75.7341 138.009 74.4626 138.017 73.1638C138.046 66.6127 143.366 61.2585 149.876 61.2278C153 61.213 155.935 62.4222 158.149 64.6293C160.377 66.8573 161.596 69.8339 161.582 73.01C161.559 77.625 158.844 81.8738 154.662 83.8358C153.86 84.2116 153.35 85.0183 153.353 85.9024C153.358 86.7877 153.887 87.6091 154.677 87.9624C158.822 89.8527 161.484 94.0782 161.461 98.6802C161.43 105.23 156.11 110.584 149.602 110.616Z" fill="white"/>
</g>
<ellipse cx="149.887" cy="72.9414" rx="13.9141" ry="13.5049" fill="white"/>
<ellipse cx="149.887" cy="97.4951" rx="13.9141" ry="13.5049" fill="white"/>
<ellipse cx="34.4815" cy="72.9414" rx="13.9141" ry="13.5049" fill="white"/>
<ellipse cx="32.8448" cy="99.9512" rx="13.9141" ry="13.5049" fill="white"/>
<rect x="25.4785" y="77.4424" width="130.956" height="18.0065" fill="white"/>
<defs>
<filter id="filter0_d_328_1377" x="13.1338" y="56.6787" width="157" height="67.0273" filterUnits="userSpaceOnUse" color-interpolation-filters="sRGB">
<feFlood flood-opacity="0" result="BackgroundImageFix"/>
<feColorMatrix in="SourceAlpha" type="matrix" values="0 0 0 0 0 0 0 0 0 0 0 0 0 0 0 0 0 0 127 0" result="hardAlpha"/>
<feOffset dy="4"/>
<feGaussianBlur stdDeviation="2"/>
<feComposite in2="hardAlpha" operator="out"/>
<feColorMatrix type="matrix" values="0 0 0 0 0 0 0 0 0 0 0 0 0 0 0 0 0 0 0.25 0"/>
<feBlend mode="normal" in2="BackgroundImageFix" result="effect1_dropShadow_328_1377"/>
<feBlend mode="normal" in="SourceGraphic" in2="effect1_dropShadow_328_1377" result="shape"/>
</filter>
</defs>
</svg>
