<svg width="1440" height="1437" viewBox="0 0 1440 1437" fill="none" xmlns="http://www.w3.org/2000/svg">
<line y1="-0.5" x2="90.0942" y2="-0.5" transform="matrix(0.894879 0.446309 -0.0430773 0.999072 143.945 1212.46)" stroke="#34230E"/>
<line y1="-0.5" x2="90.0942" y2="-0.5" transform="matrix(0.894879 0.446309 -0.0430773 0.999072 153.062 1152.88)" stroke="#34230E"/>
<line y1="-0.5" x2="90.0942" y2="-0.5" transform="matrix(0.894879 0.446309 -0.0430773 0.999072 125 1286.1)" stroke="#34230E"/>
<line y1="-0.5" x2="90.0942" y2="-0.5" transform="matrix(0.894879 0.446309 -0.0430773 0.999072 190.097 1295.79)" stroke="#34230E"/>
<line y1="-0.5" x2="90.0942" y2="-0.5" transform="matrix(0.894879 0.446309 -0.0430773 0.999072 224.568 1149)" stroke="#34230E"/>
<line y1="-0.5" x2="90.0942" y2="-0.5" transform="matrix(0.894879 0.446309 -0.0430773 0.999072 141.381 1169.35)" stroke="#34230E"/>
<line y1="-0.5" x2="90.0942" y2="-0.5" transform="matrix(0.894879 0.446309 -0.0430773 0.999072 176.138 1266.24)" stroke="#34230E"/>
<line y1="-0.5" x2="90.0942" y2="-0.5" transform="matrix(0.894879 0.446309 -0.0430773 0.999072 199.07 1209.56)" stroke="#34230E"/>
<line y1="-0.5" x2="90.0942" y2="-0.5" transform="matrix(0.894879 0.446309 -0.0430773 0.999072 241.377 1196.96)" stroke="#34230E"/>
<line y1="-0.5" x2="90.0942" y2="-0.5" transform="matrix(0.894879 0.446309 -0.0430773 0.999072 238.386 1266.24)" stroke="#34230E"/>
<line y1="-0.5" x2="90.0942" y2="-0.5" transform="matrix(0.894879 0.446309 -0.0430773 0.999072 143.945 1212.46)" stroke="#34230E"/>
<line y1="-0.5" x2="90.0942" y2="-0.5" transform="matrix(0.894879 0.446309 -0.0430773 0.999072 153.062 1152.88)" stroke="#34230E"/>
<line y1="-0.5" x2="90.0942" y2="-0.5" transform="matrix(0.894879 0.446309 -0.0430773 0.999072 125 1286.1)" stroke="#34230E"/>
<line y1="-0.5" x2="90.0942" y2="-0.5" transform="matrix(0.894879 0.446309 -0.0430773 0.999072 190.097 1295.79)" stroke="#34230E"/>
<line y1="-0.5" x2="90.0942" y2="-0.5" transform="matrix(0.894879 0.446309 -0.0430773 0.999072 224.568 1149)" stroke="#34230E"/>
<line y1="-0.5" x2="90.0942" y2="-0.5" transform="matrix(0.894879 0.446309 -0.0430773 0.999072 141.381 1169.35)" stroke="#34230E"/>
<line y1="-0.5" x2="90.0942" y2="-0.5" transform="matrix(0.894879 0.446309 -0.0430773 0.999072 176.138 1266.24)" stroke="#34230E"/>
<line y1="-0.5" x2="90.0942" y2="-0.5" transform="matrix(0.894879 0.446309 -0.0430773 0.999072 199.07 1209.56)" stroke="#34230E"/>
<line y1="-0.5" x2="90.0942" y2="-0.5" transform="matrix(0.894879 0.446309 -0.0430773 0.999072 241.377 1196.96)" stroke="#34230E"/>
<line y1="-0.5" x2="90.0942" y2="-0.5" transform="matrix(0.894879 0.446309 -0.0430773 0.999072 238.386 1266.24)" stroke="#34230E"/>
<line y1="-0.5" x2="90.0942" y2="-0.5" transform="matrix(0.894879 0.446309 -0.0430773 0.999072 649.945 1313.46)" stroke="#34230E"/>
<line y1="-0.5" x2="90.0942" y2="-0.5" transform="matrix(0.894879 0.446309 -0.0430773 0.999072 659.062 1253.88)" stroke="#34230E"/>
<line y1="-0.5" x2="90.0942" y2="-0.5" transform="matrix(0.894879 0.446309 -0.0430773 0.999072 631 1387.1)" stroke="#34230E"/>
<line y1="-0.5" x2="90.0942" y2="-0.5" transform="matrix(0.894879 0.446309 -0.0430773 0.999072 696.097 1396.79)" stroke="#34230E"/>
<line y1="-0.5" x2="90.0942" y2="-0.5" transform="matrix(0.894879 0.446309 -0.0430773 0.999072 730.568 1250)" stroke="#34230E"/>
<line y1="-0.5" x2="90.0942" y2="-0.5" transform="matrix(0.894879 0.446309 -0.0430773 0.999072 647.381 1270.35)" stroke="#34230E"/>
<line y1="-0.5" x2="90.0942" y2="-0.5" transform="matrix(0.894879 0.446309 -0.0430773 0.999072 682.138 1367.24)" stroke="#34230E"/>
<line y1="-0.5" x2="90.0942" y2="-0.5" transform="matrix(0.894879 0.446309 -0.0430773 0.999072 705.07 1310.56)" stroke="#34230E"/>
<line y1="-0.5" x2="90.0942" y2="-0.5" transform="matrix(0.894879 0.446309 -0.0430773 0.999072 747.377 1297.96)" stroke="#34230E"/>
<line y1="-0.5" x2="90.0942" y2="-0.5" transform="matrix(0.894879 0.446309 -0.0430773 0.999072 744.386 1367.24)" stroke="#34230E"/>
<line y1="-0.5" x2="90.0942" y2="-0.5" transform="matrix(0.894879 0.446309 -0.0430773 0.999072 1168.95 1282.46)" stroke="#34230E"/>
<line y1="-0.5" x2="90.0942" y2="-0.5" transform="matrix(0.894879 0.446309 -0.0430773 0.999072 1178.06 1222.88)" stroke="#34230E"/>
<line y1="-0.5" x2="90.0942" y2="-0.5" transform="matrix(0.894879 0.446309 -0.0430773 0.999072 1150 1356.1)" stroke="#34230E"/>
<line y1="-0.5" x2="90.0942" y2="-0.5" transform="matrix(0.894879 0.446309 -0.0430773 0.999072 1215.1 1365.79)" stroke="#34230E"/>
<line y1="-0.5" x2="90.0942" y2="-0.5" transform="matrix(0.894879 0.446309 -0.0430773 0.999072 1249.57 1219)" stroke="#34230E"/>
<line y1="-0.5" x2="90.0942" y2="-0.5" transform="matrix(0.894879 0.446309 -0.0430773 0.999072 1166.38 1239.35)" stroke="#34230E"/>
<line y1="-0.5" x2="90.0942" y2="-0.5" transform="matrix(0.894879 0.446309 -0.0430773 0.999072 1201.14 1336.24)" stroke="#34230E"/>
<line y1="-0.5" x2="90.0942" y2="-0.5" transform="matrix(0.894879 0.446309 -0.0430773 0.999072 1224.07 1279.56)" stroke="#34230E"/>
<line y1="-0.5" x2="90.0942" y2="-0.5" transform="matrix(0.894879 0.446309 -0.0430773 0.999072 1266.38 1266.96)" stroke="#34230E"/>
<line y1="-0.5" x2="90.0942" y2="-0.5" transform="matrix(0.894879 0.446309 -0.0430773 0.999072 1263.39 1336.24)" stroke="#34230E"/>
<line y1="-0.5" x2="90.0942" y2="-0.5" transform="matrix(0.894879 0.446309 -0.0430773 0.999072 410.945 64.4639)" stroke="#34230E"/>
<line y1="-0.5" x2="90.0942" y2="-0.5" transform="matrix(0.894879 0.446309 -0.0430773 0.999072 420.062 4.87598)" stroke="#34230E"/>
<line y1="-0.5" x2="90.0942" y2="-0.5" transform="matrix(0.894879 0.446309 -0.0430773 0.999072 392 138.102)" stroke="#34230E"/>
<line y1="-0.5" x2="90.0942" y2="-0.5" transform="matrix(0.894879 0.446309 -0.0430773 0.999072 457.097 147.79)" stroke="#34230E"/>
<line y1="-0.5" x2="90.0942" y2="-0.5" transform="matrix(0.894879 0.446309 -0.0430773 0.999072 491.568 1)" stroke="#34230E"/>
<line y1="-0.5" x2="90.0942" y2="-0.5" transform="matrix(0.894879 0.446309 -0.0430773 0.999072 408.381 21.3477)" stroke="#34230E"/>
<line y1="-0.5" x2="90.0942" y2="-0.5" transform="matrix(0.894879 0.446309 -0.0430773 0.999072 443.138 118.238)" stroke="#34230E"/>
<line y1="-0.5" x2="90.0942" y2="-0.5" transform="matrix(0.894879 0.446309 -0.0430773 0.999072 466.07 61.5566)" stroke="#34230E"/>
<line y1="-0.5" x2="90.0942" y2="-0.5" transform="matrix(0.894879 0.446309 -0.0430773 0.999072 508.377 48.9609)" stroke="#34230E"/>
<line y1="-0.5" x2="90.0942" y2="-0.5" transform="matrix(0.894879 0.446309 -0.0430773 0.999072 505.386 118.238)" stroke="#34230E"/>
<line y1="-0.5" x2="90.0942" y2="-0.5" transform="matrix(0.894879 0.446309 -0.0430773 0.999072 54.9453 153.464)" stroke="#34230E"/>
<line y1="-0.5" x2="90.0942" y2="-0.5" transform="matrix(0.894879 0.446309 -0.0430773 0.999072 64.0615 93.876)" stroke="#34230E"/>
<line y1="-0.5" x2="90.0942" y2="-0.5" transform="matrix(0.894879 0.446309 -0.0430773 0.999072 36 227.102)" stroke="#34230E"/>
<line y1="-0.5" x2="90.0942" y2="-0.5" transform="matrix(0.894879 0.446309 -0.0430773 0.999072 101.097 236.79)" stroke="#34230E"/>
<line y1="-0.5" x2="90.0942" y2="-0.5" transform="matrix(0.894879 0.446309 -0.0430773 0.999072 135.568 90)" stroke="#34230E"/>
<line y1="-0.5" x2="90.0942" y2="-0.5" transform="matrix(0.894879 0.446309 -0.0430773 0.999072 52.3809 110.348)" stroke="#34230E"/>
<line y1="-0.5" x2="90.0942" y2="-0.5" transform="matrix(0.894879 0.446309 -0.0430773 0.999072 87.1377 207.238)" stroke="#34230E"/>
<line y1="-0.5" x2="90.0942" y2="-0.5" transform="matrix(0.894879 0.446309 -0.0430773 0.999072 110.07 150.557)" stroke="#34230E"/>
<line y1="-0.5" x2="90.0942" y2="-0.5" transform="matrix(0.894879 0.446309 -0.0430773 0.999072 152.377 137.961)" stroke="#34230E"/>
<line y1="-0.5" x2="90.0942" y2="-0.5" transform="matrix(0.894879 0.446309 -0.0430773 0.999072 149.386 207.238)" stroke="#34230E"/>
<line y1="-0.5" x2="90.0942" y2="-0.5" transform="matrix(0.894879 0.446309 -0.0430773 0.999072 818.945 380.464)" stroke="#34230E"/>
<line y1="-0.5" x2="90.0942" y2="-0.5" transform="matrix(0.894879 0.446309 -0.0430773 0.999072 828.062 320.876)" stroke="#34230E"/>
<line y1="-0.5" x2="90.0942" y2="-0.5" transform="matrix(0.894879 0.446309 -0.0430773 0.999072 800 454.102)" stroke="#34230E"/>
<line y1="-0.5" x2="90.0942" y2="-0.5" transform="matrix(0.894879 0.446309 -0.0430773 0.999072 865.097 463.79)" stroke="#34230E"/>
<line y1="-0.5" x2="90.0942" y2="-0.5" transform="matrix(0.894879 0.446309 -0.0430773 0.999072 899.568 317)" stroke="#34230E"/>
<line y1="-0.5" x2="90.0942" y2="-0.5" transform="matrix(0.894879 0.446309 -0.0430773 0.999072 816.381 337.348)" stroke="#34230E"/>
<line y1="-0.5" x2="90.0942" y2="-0.5" transform="matrix(0.894879 0.446309 -0.0430773 0.999072 851.138 434.238)" stroke="#34230E"/>
<line y1="-0.5" x2="90.0942" y2="-0.5" transform="matrix(0.894879 0.446309 -0.0430773 0.999072 874.07 377.557)" stroke="#34230E"/>
<line y1="-0.5" x2="90.0942" y2="-0.5" transform="matrix(0.894879 0.446309 -0.0430773 0.999072 916.377 364.961)" stroke="#34230E"/>
<line y1="-0.5" x2="90.0942" y2="-0.5" transform="matrix(0.894879 0.446309 -0.0430773 0.999072 913.386 434.238)" stroke="#34230E"/>
<line y1="-0.5" x2="90.0942" y2="-0.5" transform="matrix(0.894879 0.446309 -0.0430773 0.999072 1234.95 257.464)" stroke="#34230E"/>
<line y1="-0.5" x2="90.0942" y2="-0.5" transform="matrix(0.894879 0.446309 -0.0430773 0.999072 1244.06 197.876)" stroke="#34230E"/>
<line y1="-0.5" x2="90.0942" y2="-0.5" transform="matrix(0.894879 0.446309 -0.0430773 0.999072 1216 331.102)" stroke="#34230E"/>
<line y1="-0.5" x2="90.0942" y2="-0.5" transform="matrix(0.894879 0.446309 -0.0430773 0.999072 1281.1 340.79)" stroke="#34230E"/>
<line y1="-0.5" x2="90.0942" y2="-0.5" transform="matrix(0.894879 0.446309 -0.0430773 0.999072 1315.57 194)" stroke="#34230E"/>
<line y1="-0.5" x2="90.0942" y2="-0.5" transform="matrix(0.894879 0.446309 -0.0430773 0.999072 1232.38 214.348)" stroke="#34230E"/>
<line y1="-0.5" x2="90.0942" y2="-0.5" transform="matrix(0.894879 0.446309 -0.0430773 0.999072 1267.14 311.238)" stroke="#34230E"/>
<line y1="-0.5" x2="90.0942" y2="-0.5" transform="matrix(0.894879 0.446309 -0.0430773 0.999072 1290.07 254.557)" stroke="#34230E"/>
<line y1="-0.5" x2="90.0942" y2="-0.5" transform="matrix(0.894879 0.446309 -0.0430773 0.999072 1332.38 241.961)" stroke="#34230E"/>
<line y1="-0.5" x2="90.0942" y2="-0.5" transform="matrix(0.894879 0.446309 -0.0430773 0.999072 1329.39 311.238)" stroke="#34230E"/>
<line y1="-0.5" x2="90.0942" y2="-0.5" transform="matrix(0.894879 0.446309 -0.0430773 0.999072 1171.95 573.464)" stroke="#34230E"/>
<line y1="-0.5" x2="90.0942" y2="-0.5" transform="matrix(0.894879 0.446309 -0.0430773 0.999072 1181.06 513.876)" stroke="#34230E"/>
<line y1="-0.5" x2="90.0942" y2="-0.5" transform="matrix(0.894879 0.446309 -0.0430773 0.999072 1153 647.102)" stroke="#34230E"/>
<line y1="-0.5" x2="90.0942" y2="-0.5" transform="matrix(0.894879 0.446309 -0.0430773 0.999072 1218.1 656.79)" stroke="#34230E"/>
<line y1="-0.5" x2="90.0942" y2="-0.5" transform="matrix(0.894879 0.446309 -0.0430773 0.999072 1252.57 510)" stroke="#34230E"/>
<line y1="-0.5" x2="90.0942" y2="-0.5" transform="matrix(0.894879 0.446309 -0.0430773 0.999072 1169.38 530.348)" stroke="#34230E"/>
<line y1="-0.5" x2="90.0942" y2="-0.5" transform="matrix(0.894879 0.446309 -0.0430773 0.999072 1204.14 627.238)" stroke="#34230E"/>
<line y1="-0.5" x2="90.0942" y2="-0.5" transform="matrix(0.894879 0.446309 -0.0430773 0.999072 1227.07 570.557)" stroke="#34230E"/>
<line y1="-0.5" x2="90.0942" y2="-0.5" transform="matrix(0.894879 0.446309 -0.0430773 0.999072 1269.38 557.961)" stroke="#34230E"/>
<line y1="-0.5" x2="90.0942" y2="-0.5" transform="matrix(0.894879 0.446309 -0.0430773 0.999072 1266.39 627.238)" stroke="#34230E"/>
<line y1="-0.5" x2="90.0942" y2="-0.5" transform="matrix(0.894879 0.446309 -0.0430773 0.999072 947.945 90.4639)" stroke="#34230E"/>
<line y1="-0.5" x2="90.0942" y2="-0.5" transform="matrix(0.894879 0.446309 -0.0430773 0.999072 957.062 30.876)" stroke="#34230E"/>
<line y1="-0.5" x2="90.0942" y2="-0.5" transform="matrix(0.894879 0.446309 -0.0430773 0.999072 929 164.102)" stroke="#34230E"/>
<line y1="-0.5" x2="90.0942" y2="-0.5" transform="matrix(0.894879 0.446309 -0.0430773 0.999072 994.097 173.79)" stroke="#34230E"/>
<line y1="-0.5" x2="90.0942" y2="-0.5" transform="matrix(0.894879 0.446309 -0.0430773 0.999072 1028.57 27)" stroke="#34230E"/>
<line y1="-0.5" x2="90.0942" y2="-0.5" transform="matrix(0.894879 0.446309 -0.0430773 0.999072 945.381 47.3477)" stroke="#34230E"/>
<line y1="-0.5" x2="90.0942" y2="-0.5" transform="matrix(0.894879 0.446309 -0.0430773 0.999072 980.138 144.238)" stroke="#34230E"/>
<line y1="-0.5" x2="90.0942" y2="-0.5" transform="matrix(0.894879 0.446309 -0.0430773 0.999072 1003.07 87.5566)" stroke="#34230E"/>
<line y1="-0.5" x2="90.0942" y2="-0.5" transform="matrix(0.894879 0.446309 -0.0430773 0.999072 1045.38 74.9609)" stroke="#34230E"/>
<line y1="-0.5" x2="90.0942" y2="-0.5" transform="matrix(0.894879 0.446309 -0.0430773 0.999072 1042.39 144.238)" stroke="#34230E"/>
<line y1="-0.5" x2="90.0942" y2="-0.5" transform="matrix(0.894879 0.446309 -0.0430773 0.999072 -10.0547 847.464)" stroke="#34230E"/>
<line y1="-0.5" x2="90.0942" y2="-0.5" transform="matrix(0.894879 0.446309 -0.0430773 0.999072 -0.938477 787.876)" stroke="#34230E"/>
<line y1="-0.5" x2="90.0942" y2="-0.5" transform="matrix(0.894879 0.446309 -0.0430773 0.999072 -29 921.102)" stroke="#34230E"/>
<line y1="-0.5" x2="90.0942" y2="-0.5" transform="matrix(0.894879 0.446309 -0.0430773 0.999072 36.0967 930.79)" stroke="#34230E"/>
<line y1="-0.5" x2="90.0942" y2="-0.5" transform="matrix(0.894879 0.446309 -0.0430773 0.999072 70.5684 784)" stroke="#34230E"/>
<line y1="-0.5" x2="90.0942" y2="-0.5" transform="matrix(0.894879 0.446309 -0.0430773 0.999072 -12.6191 804.348)" stroke="#34230E"/>
<line y1="-0.5" x2="90.0942" y2="-0.5" transform="matrix(0.894879 0.446309 -0.0430773 0.999072 22.1377 901.238)" stroke="#34230E"/>
<line y1="-0.5" x2="90.0942" y2="-0.5" transform="matrix(0.894879 0.446309 -0.0430773 0.999072 45.0703 844.557)" stroke="#34230E"/>
<line y1="-0.5" x2="90.0942" y2="-0.5" transform="matrix(0.894879 0.446309 -0.0430773 0.999072 87.377 831.961)" stroke="#34230E"/>
<line y1="-0.5" x2="90.0942" y2="-0.5" transform="matrix(0.894879 0.446309 -0.0430773 0.999072 84.3857 901.238)" stroke="#34230E"/>
<line y1="-0.5" x2="90.0942" y2="-0.5" transform="matrix(0.894879 0.446309 -0.0430773 0.999072 1311.95 871.464)" stroke="#34230E"/>
<line y1="-0.5" x2="90.0942" y2="-0.5" transform="matrix(0.894879 0.446309 -0.0430773 0.999072 1321.06 811.876)" stroke="#34230E"/>
<line y1="-0.5" x2="90.0942" y2="-0.5" transform="matrix(0.894879 0.446309 -0.0430773 0.999072 1293 945.102)" stroke="#34230E"/>
<line y1="-0.5" x2="90.0942" y2="-0.5" transform="matrix(0.894879 0.446309 -0.0430773 0.999072 1358.1 954.79)" stroke="#34230E"/>
<line y1="-0.5" x2="90.0942" y2="-0.5" transform="matrix(0.894879 0.446309 -0.0430773 0.999072 1392.57 808)" stroke="#34230E"/>
<line y1="-0.5" x2="90.0942" y2="-0.5" transform="matrix(0.894879 0.446309 -0.0430773 0.999072 1309.38 828.348)" stroke="#34230E"/>
<line y1="-0.5" x2="90.0942" y2="-0.5" transform="matrix(0.894879 0.446309 -0.0430773 0.999072 1344.14 925.238)" stroke="#34230E"/>
<line y1="-0.5" x2="90.0942" y2="-0.5" transform="matrix(0.894879 0.446309 -0.0430773 0.999072 1367.07 868.557)" stroke="#34230E"/>
<line y1="-0.5" x2="90.0942" y2="-0.5" transform="matrix(0.894879 0.446309 -0.0430773 0.999072 1409.38 855.961)" stroke="#34230E"/>
<line y1="-0.5" x2="90.0942" y2="-0.5" transform="matrix(0.894879 0.446309 -0.0430773 0.999072 1406.39 925.238)" stroke="#34230E"/>
<line y1="-0.5" x2="90.0942" y2="-0.5" transform="matrix(0.894879 0.446309 -0.0430773 0.999072 16.9453 533.464)" stroke="#34230E"/>
<line y1="-0.5" x2="90.0942" y2="-0.5" transform="matrix(0.894879 0.446309 -0.0430773 0.999072 26.0615 473.876)" stroke="#34230E"/>
<line y1="-0.5" x2="90.0942" y2="-0.5" transform="matrix(0.894879 0.446309 -0.0430773 0.999072 -2 607.102)" stroke="#34230E"/>
<line y1="-0.5" x2="90.0942" y2="-0.5" transform="matrix(0.894879 0.446309 -0.0430773 0.999072 63.0967 616.79)" stroke="#34230E"/>
<line y1="-0.5" x2="90.0942" y2="-0.5" transform="matrix(0.894879 0.446309 -0.0430773 0.999072 97.5684 470)" stroke="#34230E"/>
<line y1="-0.5" x2="90.0942" y2="-0.5" transform="matrix(0.894879 0.446309 -0.0430773 0.999072 14.3809 490.348)" stroke="#34230E"/>
<line y1="-0.5" x2="90.0942" y2="-0.5" transform="matrix(0.894879 0.446309 -0.0430773 0.999072 49.1377 587.238)" stroke="#34230E"/>
<line y1="-0.5" x2="90.0942" y2="-0.5" transform="matrix(0.894879 0.446309 -0.0430773 0.999072 72.0703 530.557)" stroke="#34230E"/>
<line y1="-0.5" x2="90.0942" y2="-0.5" transform="matrix(0.894879 0.446309 -0.0430773 0.999072 114.377 517.961)" stroke="#34230E"/>
<line y1="-0.5" x2="90.0942" y2="-0.5" transform="matrix(0.894879 0.446309 -0.0430773 0.999072 111.386 587.238)" stroke="#34230E"/>
<line y1="-0.5" x2="90.0942" y2="-0.5" transform="matrix(0.894879 0.446309 -0.0430773 0.999072 834.945 710.464)" stroke="#34230E"/>
<line y1="-0.5" x2="90.0942" y2="-0.5" transform="matrix(0.894879 0.446309 -0.0430773 0.999072 844.062 650.876)" stroke="#34230E"/>
<line y1="-0.5" x2="90.0942" y2="-0.5" transform="matrix(0.894879 0.446309 -0.0430773 0.999072 816 784.102)" stroke="#34230E"/>
<line y1="-0.5" x2="90.0942" y2="-0.5" transform="matrix(0.894879 0.446309 -0.0430773 0.999072 881.097 793.79)" stroke="#34230E"/>
<line y1="-0.5" x2="90.0942" y2="-0.5" transform="matrix(0.894879 0.446309 -0.0430773 0.999072 915.568 647)" stroke="#34230E"/>
<line y1="-0.5" x2="90.0942" y2="-0.5" transform="matrix(0.894879 0.446309 -0.0430773 0.999072 832.381 667.348)" stroke="#34230E"/>
<line y1="-0.5" x2="90.0942" y2="-0.5" transform="matrix(0.894879 0.446309 -0.0430773 0.999072 867.138 764.238)" stroke="#34230E"/>
<line y1="-0.5" x2="90.0942" y2="-0.5" transform="matrix(0.894879 0.446309 -0.0430773 0.999072 890.07 707.557)" stroke="#34230E"/>
<line y1="-0.5" x2="90.0942" y2="-0.5" transform="matrix(0.894879 0.446309 -0.0430773 0.999072 932.377 694.961)" stroke="#34230E"/>
<line y1="-0.5" x2="90.0942" y2="-0.5" transform="matrix(0.894879 0.446309 -0.0430773 0.999072 929.386 764.238)" stroke="#34230E"/>
<line y1="-0.5" x2="90.0942" y2="-0.5" transform="matrix(0.894879 0.446309 -0.0430773 0.999072 424.945 317.464)" stroke="#34230E"/>
<line y1="-0.5" x2="90.0942" y2="-0.5" transform="matrix(0.894879 0.446309 -0.0430773 0.999072 434.062 257.876)" stroke="#34230E"/>
<line y1="-0.5" x2="90.0942" y2="-0.5" transform="matrix(0.894879 0.446309 -0.0430773 0.999072 406 391.102)" stroke="#34230E"/>
<line y1="-0.5" x2="90.0942" y2="-0.5" transform="matrix(0.894879 0.446309 -0.0430773 0.999072 471.097 400.79)" stroke="#34230E"/>
<line y1="-0.5" x2="90.0942" y2="-0.5" transform="matrix(0.894879 0.446309 -0.0430773 0.999072 505.568 254)" stroke="#34230E"/>
<line y1="-0.5" x2="90.0942" y2="-0.5" transform="matrix(0.894879 0.446309 -0.0430773 0.999072 422.381 274.348)" stroke="#34230E"/>
<line y1="-0.5" x2="90.0942" y2="-0.5" transform="matrix(0.894879 0.446309 -0.0430773 0.999072 457.138 371.238)" stroke="#34230E"/>
<line y1="-0.5" x2="90.0942" y2="-0.5" transform="matrix(0.894879 0.446309 -0.0430773 0.999072 480.07 314.557)" stroke="#34230E"/>
<line y1="-0.5" x2="90.0942" y2="-0.5" transform="matrix(0.894879 0.446309 -0.0430773 0.999072 522.377 301.961)" stroke="#34230E"/>
<line y1="-0.5" x2="90.0942" y2="-0.5" transform="matrix(0.894879 0.446309 -0.0430773 0.999072 519.386 371.238)" stroke="#34230E"/>
</svg>
