<svg width="1920" height="1600" viewBox="0 0 1920 1600" fill="none" xmlns="http://www.w3.org/2000/svg">
<g clip-path="url(#clip0_131_543)">
<rect width="1920" height="1600" fill="white"/>
<path d="M925.5 1169.5L883.498 1048.3L967.502 1048.3L925.5 1169.5Z" fill="#49A0B5"/>
<path d="M219.5 113.147L177.498 -8.05586L261.502 -8.05585L219.5 113.147Z" fill="#377D8D"/>
<path d="M1346 235L1309.63 130.75L1382.37 130.75L1346 235Z" fill="#377D8D"/>
<path d="M557 1009.31L529.287 929.576L584.713 929.576L557 1009.31Z" fill="#098CAA"/>
<path d="M1046 955.447L1018.29 875.708L1073.71 875.708L1046 955.447Z" fill="#098CAA"/>
<path d="M747.5 713.419L705.498 592.216L789.502 592.216L747.5 713.419Z" fill="#1E6A7B"/>
<path d="M1548 79L1511.63 -26L1584.37 -26L1548 79Z" fill="#49A0B5"/>
<path d="M1759 771.318L1731.29 691.58L1786.71 691.58L1759 771.318Z" fill="#098CAA"/>
<path d="M440 1349.53L412.287 1269.79L467.713 1269.79L440 1349.53Z" fill="#098CAA"/>
<path d="M70.5 745.646L28.4978 624.443L112.502 624.443L70.5 745.646Z" fill="#5D9FAE"/>
<path d="M195.5 1236.13L153.498 1114.92L237.502 1114.92L195.5 1236.13Z" fill="#1E6A7B"/>
<path d="M1706 244L1669.63 139L1742.37 139L1706 244Z" fill="#377D8D"/>
<path d="M1891 1204.77L1863.29 1125.03L1918.71 1125.03L1891 1204.77Z" fill="#098CAA"/>
<path d="M1774 1544.99L1746.29 1465.25L1801.71 1465.25L1774 1544.99Z" fill="#098CAA"/>
<path d="M1404.5 941.103L1362.5 819.9L1446.5 819.9L1404.5 941.103Z" fill="#5D9FAE"/>
<path d="M1529.5 1431.58L1487.5 1310.38L1571.5 1310.38L1529.5 1431.58Z" fill="#1E6A7B"/>
<rect width="1920" height="983" fill="url(#paint0_linear_131_543)"/>
</g>
<defs>
<linearGradient id="paint0_linear_131_543" x1="960" y1="0" x2="960" y2="983" gradientUnits="userSpaceOnUse">
<stop offset="0.78125" stop-color="white" stop-opacity="0"/>
<stop offset="0.953125" stop-color="#8BE3FF"/>
</linearGradient>
<clipPath id="clip0_131_543">
<rect width="1920" height="1600" fill="white"/>
</clipPath>
</defs>
</svg>
